<svg width="200" height="51" viewBox="0 0 200 51" fill="none" xmlns="http://www.w3.org/2000/svg">
<path d="M69.283 14.9237C66.4746 14.9237 64.031 15.9085 62.0979 17.8415C60.1284 19.7745 59.1437 22.2182 59.1437 24.9901C59.1437 27.762 60.1284 30.1692 62.0979 32.1022C64.0675 34.0352 66.4746 35.02 69.283 35.02C72.0914 35.02 74.535 34.0352 76.4681 32.1022C78.4376 30.1692 79.4223 27.762 79.4223 24.9901C79.4223 22.2182 78.4376 19.7745 76.4681 17.8415C74.4985 15.9085 72.0914 14.9237 69.283 14.9237ZM73.1855 29.0385C72.1278 30.0962 70.8513 30.6433 69.283 30.6433C67.7147 30.6433 66.4746 30.1327 65.3805 29.0385C64.3228 27.9808 63.8121 26.6313 63.8121 25.0266C63.8121 23.4218 64.3228 22.0723 65.3805 20.9781C66.4382 19.8839 67.7147 19.3733 69.283 19.3733C70.8513 19.3733 72.0914 19.9204 73.1855 20.9781C74.2432 22.0723 74.7903 23.3853 74.7903 25.0266C74.7903 26.6678 74.2797 27.9808 73.222 29.0385H73.1855Z" fill="white"/>
<path d="M88.7957 15.3249H81.5742V34.6188H88.7957C91.9324 34.6188 94.5219 33.707 96.4185 31.9563C98.3515 30.1692 99.3363 27.835 99.3363 24.9536C99.3363 22.0723 98.3515 19.7381 96.4185 17.9509C94.4854 16.2003 91.9324 15.2885 88.7957 15.2885V15.3249ZM86.2062 19.6287H88.7957C90.6194 19.6287 92.0418 20.1028 93.0995 21.0876C94.1572 22.0723 94.6678 23.3488 94.6678 24.9901C94.6678 26.6314 94.1572 27.9079 93.0995 28.8926C92.0418 29.8774 90.6194 30.3515 88.7957 30.3515H86.2062V19.6287Z" fill="white"/>
<path d="M108.71 15.3249H101.488V34.6188H108.71C111.846 34.6188 114.436 33.707 116.332 31.9563C118.265 30.1692 119.25 27.835 119.25 24.9536C119.25 22.0723 118.265 19.7381 116.332 17.9509C114.399 16.2003 111.846 15.2885 108.71 15.2885V15.3249ZM106.12 19.6287H108.71C110.533 19.6287 111.956 20.1028 113.013 21.0876C114.071 22.0723 114.582 23.3488 114.582 24.9901C114.582 26.6314 114.071 27.9079 113.013 28.8926C111.956 29.8774 110.533 30.3515 108.71 30.3515H106.12V19.6287Z" fill="white"/>
<path d="M140.732 15.325L135.991 23.5677L131.25 15.325H126.071L133.657 28.4915V34.6553H138.325V28.4185L146.094 15.325H140.732Z" fill="white"/>
<path d="M154.555 15.3249H150.471L142.118 34.6188H147.152L148.756 30.6798H156.27L157.874 34.6188H162.908L154.665 15.5802L154.555 15.2885V15.3249ZM154.519 26.4125H150.507L152.513 21.5252L154.519 26.4125Z" fill="white"/>
<path d="M178.445 25.7561C179.466 24.6619 179.977 23.2395 179.977 21.5982C179.977 19.7381 179.32 18.2063 178.007 17.0392C176.731 15.9085 175.016 15.325 172.938 15.325H163.674V34.6188H168.306V27.8714H169.582L175.637 34.6188H181.436L175.126 27.6161C176.475 27.2879 177.57 26.6679 178.408 25.7561H178.445ZM168.306 19.6287H172.938C173.703 19.6287 174.287 19.8111 174.725 20.1758C175.162 20.5405 175.345 21.0146 175.345 21.5982C175.345 22.1818 175.126 22.6559 174.725 23.0206C174.287 23.3853 173.703 23.6042 172.938 23.6042H168.306V19.6287Z" fill="white"/>
<path d="M197.082 17.9874C195.149 16.2368 192.596 15.325 189.46 15.325H182.238V34.6188H189.46C192.596 34.6188 195.186 33.707 197.082 31.9564C199.015 30.1692 200 27.835 200 24.9537C200 22.0723 199.015 19.7381 197.082 17.951V17.9874ZM186.87 19.6287H189.46C191.283 19.6287 192.706 20.1028 193.763 21.0876C194.821 22.0723 195.332 23.3489 195.332 24.9901C195.332 26.6314 194.821 27.9079 193.763 28.8927C192.706 29.8774 191.283 30.3516 189.46 30.3516H186.87V19.6287Z" fill="white"/>
<path d="M24.9688 11.8262C24.9688 8.92563 22.6255 6.57422 19.735 6.57422C16.8445 6.57422 14.5012 8.92563 14.5012 11.8262V35.6062C14.5012 38.5068 16.8445 40.8583 19.735 40.8583C22.6255 40.8583 24.9688 38.5068 24.9688 35.6062V11.8262Z" fill="white"/>
<path d="M29.0509 9.02557L15.2096 32.9993C13.7593 35.5113 14.6129 38.7194 17.1162 40.1646C19.6195 41.6099 22.8245 40.7451 24.2748 38.2331L38.1161 14.2594C39.5664 11.7473 38.7128 8.53934 36.2095 7.09407C33.7062 5.6488 30.5012 6.51356 29.0509 9.02557Z" fill="white" fill-opacity="0.8"/>
<path d="M41.0775 17.3164L17.1037 31.1577C14.5917 32.608 13.7269 35.813 15.1722 38.3163C16.6175 40.8196 19.8255 41.6732 22.3375 40.2229L46.3112 26.3816C48.8232 24.9313 49.688 21.7263 48.2427 19.223C46.7975 16.7197 43.5895 15.8661 41.0775 17.3164Z" fill="white" fill-opacity="0.6"/>
<path d="M20.2987 27.2225C17.416 26.9007 14.8191 28.9686 14.4984 31.8413C14.1777 34.7139 16.2546 37.3036 19.1373 37.6254L45.1266 40.5268C48.0093 40.8486 50.6061 38.7807 50.9268 35.908C51.2475 33.0353 49.1706 30.4457 46.2879 30.1239L20.2987 27.2225Z" fill="white" fill-opacity="0.3"/>
<path d="M27.8502 20.4702C21.2122 20.4702 15.7049 25.2845 14.6472 31.6307L7.2068 28.6035C4.50784 27.5093 1.48064 28.8223 0.386465 31.4848C-0.707706 34.1838 0.605299 37.211 3.26778 38.3052L22.3793 46.0373C22.3793 46.0373 22.4887 46.0373 22.5252 46.0738C24.1665 46.7667 25.9536 47.1679 27.8502 47.1679C35.2541 47.1679 41.2355 41.1865 41.2355 33.7826C41.2355 26.3787 35.2541 20.3972 27.8502 20.3972V20.4702Z" fill="white"/>
</svg>
